<svg width="20" height="20" viewBox="0 0 20 20" fill="none" xmlns="http://www.w3.org/2000/svg">
<path d="M10 0C4.486 0 0 4.486 0 10C0 15.514 4.486 20 10 20C11.466 20 12.961 19.629 14.442 18.896L13.557 17.103C12.353 17.698 11.156 18 10 18C5.589 18 2 14.411 2 10C2 5.589 5.589 2 10 2C14.411 2 18 5.589 18 10V11C18 11.692 17.687 13 16.5 13C15.104 13 15.006 11.181 15 11V6H13V6.025C12.1393 5.36395 11.0853 5.00383 10 5C7.243 5 5 7.243 5 10C5 12.757 7.243 15 10 15C11.45 15 12.748 14.369 13.662 13.379C14.186 14.269 15.07 15 16.5 15C18.773 15 20 12.939 20 11V10C20 4.486 15.514 0 10 0ZM10 13C8.346 13 7 11.654 7 10C7 8.346 8.346 7 10 7C11.654 7 13 8.346 13 10C13 11.654 11.654 13 10 13Z" fill="#333333"/>
</svg>
