<svg width="20" height="20" viewBox="0 0 20 20" fill="none" xmlns="http://www.w3.org/2000/svg">
<path d="M10 15.8333C10.7883 15.8333 11.5083 15.7475 12.165 15.5992L10.7008 14.135C10.4733 14.1525 10.2425 14.1667 10 14.1667C5.54085 14.1667 3.81335 10.9617 3.39501 9.99999C3.70914 9.299 4.13339 8.65278 4.65168 8.08583L3.48668 6.92083C2.20501 8.30999 1.71918 9.70916 1.71001 9.73666C1.65253 9.9078 1.65253 10.093 1.71001 10.2642C1.72751 10.3192 3.63918 15.8333 10 15.8333ZM10 4.16666C8.46918 4.16666 7.21168 4.49666 6.16335 4.98416L3.08918 1.91083L1.91085 3.08916L16.9108 18.0892L18.0892 16.9108L15.3233 14.145C17.5017 12.5192 18.2792 10.2992 18.2908 10.2642C18.3483 10.093 18.3483 9.9078 18.2908 9.73666C18.2725 9.68083 16.3608 4.16666 10 4.16666ZM14.1433 12.965L12.2433 11.065C12.4017 10.74 12.5 10.3825 12.5 9.99999C12.5 8.63249 11.3675 7.49999 10 7.49999C9.61751 7.49999 9.26001 7.59833 8.93585 7.75749L7.42918 6.25083C8.25628 5.967 9.1256 5.82583 10 5.83333C14.4592 5.83333 16.1867 9.03833 16.605 9.99999C16.3533 10.5767 15.6333 11.9517 14.1433 12.965Z" fill="#333333"/>
</svg>
