<svg width="161" height="54" viewBox="0 0 161 54" fill="none" xmlns="http://www.w3.org/2000/svg">
<rect width="54" height="54" rx="27" fill="#723DEC"/>
<path d="M27 15.3333H25.8333V38.6667H27C30.0942 38.6667 33.0616 37.4375 35.2496 35.2496C37.4375 33.0617 38.6666 30.0942 38.6666 27C38.6666 23.9058 37.4375 20.9383 35.2496 18.7504C33.0616 16.5625 30.0942 15.3333 27 15.3333V15.3333ZM28.1666 36.2633V17.7367C30.4273 18.0151 32.5082 19.1106 34.0171 20.8169C35.5261 22.5231 36.359 24.7222 36.359 27C36.359 29.2778 35.5261 31.4769 34.0171 33.1831C32.5082 34.8894 30.4273 35.9849 28.1666 36.2633Z" fill="white"/>
<path d="M70.594 35.242V36.278H66.352V39.568H69.796V40.604H66.352V45H65.078V35.242H70.594ZM75.4787 45.126C74.76 45.126 74.1067 44.9627 73.5187 44.636C72.94 44.3093 72.4827 43.8473 72.1467 43.25C71.82 42.6433 71.6567 41.9433 71.6567 41.15C71.6567 40.366 71.8247 39.6753 72.1607 39.078C72.506 38.4713 72.9727 38.0093 73.5607 37.692C74.1487 37.3653 74.8067 37.202 75.5347 37.202C76.2627 37.202 76.9207 37.3653 77.5087 37.692C78.0967 38.0093 78.5587 38.4667 78.8947 39.064C79.24 39.6613 79.4127 40.3567 79.4127 41.15C79.4127 41.9433 79.2354 42.6433 78.8807 43.25C78.5354 43.8473 78.064 44.3093 77.4667 44.636C76.8694 44.9627 76.2067 45.126 75.4787 45.126ZM75.4787 44.006C75.936 44.006 76.3654 43.8987 76.7667 43.684C77.168 43.4693 77.49 43.1473 77.7327 42.718C77.9847 42.2887 78.1107 41.766 78.1107 41.15C78.1107 40.534 77.9894 40.0113 77.7467 39.582C77.504 39.1527 77.1867 38.8353 76.7947 38.63C76.4027 38.4153 75.978 38.308 75.5207 38.308C75.054 38.308 74.6247 38.4153 74.2327 38.63C73.85 38.8353 73.542 39.1527 73.3087 39.582C73.0754 40.0113 72.9587 40.534 72.9587 41.15C72.9587 41.7753 73.0707 42.3027 73.2947 42.732C73.528 43.1613 73.836 43.4833 74.2187 43.698C74.6014 43.9033 75.0214 44.006 75.4787 44.006ZM82.3618 38.574C82.5858 38.1353 82.9031 37.7947 83.3138 37.552C83.7338 37.3093 84.2424 37.188 84.8398 37.188V38.504H84.5038C83.0758 38.504 82.3618 39.2787 82.3618 40.828V45H81.0878V37.328H82.3618V38.574ZM93.3104 40.87C93.3104 41.1127 93.2964 41.3693 93.2684 41.64H87.1364C87.1831 42.396 87.4398 42.9887 87.9064 43.418C88.3824 43.838 88.9564 44.048 89.6284 44.048C90.1791 44.048 90.6364 43.922 91.0004 43.67C91.3738 43.4087 91.6351 43.0633 91.7844 42.634H93.1564C92.9511 43.3713 92.5404 43.9733 91.9244 44.44C91.3084 44.8973 90.5431 45.126 89.6284 45.126C88.9004 45.126 88.2471 44.9627 87.6684 44.636C87.0991 44.3093 86.6511 43.8473 86.3244 43.25C85.9978 42.6433 85.8344 41.9433 85.8344 41.15C85.8344 40.3567 85.9931 39.6613 86.3104 39.064C86.6278 38.4667 87.0711 38.0093 87.6404 37.692C88.2191 37.3653 88.8818 37.202 89.6284 37.202C90.3564 37.202 91.0004 37.3607 91.5604 37.678C92.1204 37.9953 92.5498 38.434 92.8484 38.994C93.1564 39.5447 93.3104 40.17 93.3104 40.87ZM91.9944 40.604C91.9944 40.1187 91.8871 39.7033 91.6724 39.358C91.4578 39.0033 91.1638 38.7373 90.7904 38.56C90.4264 38.3733 90.0204 38.28 89.5724 38.28C88.9284 38.28 88.3778 38.4853 87.9204 38.896C87.4724 39.3067 87.2158 39.876 87.1504 40.604H91.9944ZM98.7301 37.188C99.6634 37.188 100.419 37.4727 100.998 38.042C101.577 38.602 101.866 39.414 101.866 40.478V45H100.606V40.66C100.606 39.8947 100.415 39.3113 100.032 38.91C99.6494 38.4993 99.1267 38.294 98.4641 38.294C97.7921 38.294 97.2554 38.504 96.8541 38.924C96.4621 39.344 96.2661 39.9553 96.2661 40.758V45H94.9921V37.328H96.2661V38.42C96.5181 38.028 96.8587 37.7247 97.2881 37.51C97.7267 37.2953 98.2074 37.188 98.7301 37.188ZM103.471 41.15C103.471 40.3567 103.63 39.666 103.947 39.078C104.264 38.4807 104.703 38.0187 105.263 37.692C105.832 37.3653 106.481 37.202 107.209 37.202C108.152 37.202 108.926 37.4307 109.533 37.888C110.149 38.3453 110.555 38.98 110.751 39.792H109.379C109.248 39.3253 108.992 38.9567 108.609 38.686C108.236 38.4153 107.769 38.28 107.209 38.28C106.481 38.28 105.893 38.532 105.445 39.036C104.997 39.5307 104.773 40.2353 104.773 41.15C104.773 42.074 104.997 42.788 105.445 43.292C105.893 43.796 106.481 44.048 107.209 44.048C107.769 44.048 108.236 43.9173 108.609 43.656C108.982 43.3947 109.239 43.0213 109.379 42.536H110.751C110.546 43.32 110.135 43.95 109.519 44.426C108.903 44.8927 108.133 45.126 107.209 45.126C106.481 45.126 105.832 44.9627 105.263 44.636C104.703 44.3093 104.264 43.8473 103.947 43.25C103.63 42.6527 103.471 41.9527 103.471 41.15ZM119.451 40.87C119.451 41.1127 119.437 41.3693 119.409 41.64H113.277C113.324 42.396 113.58 42.9887 114.047 43.418C114.523 43.838 115.097 44.048 115.769 44.048C116.32 44.048 116.777 43.922 117.141 43.67C117.514 43.4087 117.776 43.0633 117.925 42.634H119.297C119.092 43.3713 118.681 43.9733 118.065 44.44C117.449 44.8973 116.684 45.126 115.769 45.126C115.041 45.126 114.388 44.9627 113.809 44.636C113.24 44.3093 112.792 43.8473 112.465 43.25C112.138 42.6433 111.975 41.9433 111.975 41.15C111.975 40.3567 112.134 39.6613 112.451 39.064C112.768 38.4667 113.212 38.0093 113.781 37.692C114.36 37.3653 115.022 37.202 115.769 37.202C116.497 37.202 117.141 37.3607 117.701 37.678C118.261 37.9953 118.69 38.434 118.989 38.994C119.297 39.5447 119.451 40.17 119.451 40.87ZM118.135 40.604C118.135 40.1187 118.028 39.7033 117.813 39.358C117.598 39.0033 117.304 38.7373 116.931 38.56C116.567 38.3733 116.161 38.28 115.713 38.28C115.069 38.28 114.518 38.4853 114.061 38.896C113.613 39.3067 113.356 39.876 113.291 40.604H118.135Z" fill="#7A797E"/>
<path d="M75.22 15.24C75.22 15.9467 75.0533 16.6133 74.72 17.24C74.3867 17.8667 73.8533 18.38 73.12 18.78C72.3867 19.1667 71.4467 19.36 70.3 19.36H67.78V25H65.5V11.1H70.3C71.3667 11.1 72.2667 11.2867 73 11.66C73.7467 12.02 74.3 12.5133 74.66 13.14C75.0333 13.7667 75.22 14.4667 75.22 15.24ZM70.3 17.5C71.1667 17.5 71.8133 17.3067 72.24 16.92C72.6667 16.52 72.88 15.96 72.88 15.24C72.88 13.72 72.02 12.96 70.3 12.96H67.78V17.5H70.3ZM76.6345 19.44C76.6345 18.3333 76.8612 17.3533 77.3145 16.5C77.7812 15.6467 78.4079 14.9867 79.1945 14.52C79.9945 14.04 80.8745 13.8 81.8345 13.8C82.7012 13.8 83.4545 13.9733 84.0945 14.32C84.7479 14.6533 85.2679 15.0733 85.6545 15.58V13.98H87.9545V25H85.6545V23.36C85.2679 23.88 84.7412 24.3133 84.0745 24.66C83.4079 25.0067 82.6479 25.18 81.7945 25.18C80.8479 25.18 79.9812 24.94 79.1945 24.46C78.4079 23.9667 77.7812 23.2867 77.3145 22.42C76.8612 21.54 76.6345 20.5467 76.6345 19.44ZM85.6545 19.48C85.6545 18.72 85.4945 18.06 85.1745 17.5C84.8679 16.94 84.4612 16.5133 83.9545 16.22C83.4479 15.9267 82.9012 15.78 82.3145 15.78C81.7279 15.78 81.1812 15.9267 80.6745 16.22C80.1679 16.5 79.7545 16.92 79.4345 17.48C79.1279 18.0267 78.9745 18.68 78.9745 19.44C78.9745 20.2 79.1279 20.8667 79.4345 21.44C79.7545 22.0133 80.1679 22.4533 80.6745 22.76C81.1945 23.0533 81.7412 23.2 82.3145 23.2C82.9012 23.2 83.4479 23.0533 83.9545 22.76C84.4612 22.4667 84.8679 22.04 85.1745 21.48C85.4945 20.9067 85.6545 20.24 85.6545 19.48ZM93.6092 15.84V21.94C93.6092 22.3533 93.7026 22.6533 93.8892 22.84C94.0892 23.0133 94.4226 23.1 94.8892 23.1H96.2892V25H94.4892C93.4626 25 92.6759 24.76 92.1292 24.28C91.5826 23.8 91.3092 23.02 91.3092 21.94V15.84H90.0092V13.98H91.3092V11.24H93.6092V13.98H96.2892V15.84H93.6092ZM103.171 25.18C102.131 25.18 101.191 24.9467 100.351 24.48C99.5106 24 98.8506 23.3333 98.3706 22.48C97.8906 21.6133 97.6506 20.6133 97.6506 19.48C97.6506 18.36 97.8973 17.3667 98.3906 16.5C98.884 15.6333 99.5573 14.9667 100.411 14.5C101.264 14.0333 102.217 13.8 103.271 13.8C104.324 13.8 105.277 14.0333 106.131 14.5C106.984 14.9667 107.657 15.6333 108.151 16.5C108.644 17.3667 108.891 18.36 108.891 19.48C108.891 20.6 108.637 21.5933 108.131 22.46C107.624 23.3267 106.931 24 106.051 24.48C105.184 24.9467 104.224 25.18 103.171 25.18ZM103.171 23.2C103.757 23.2 104.304 23.06 104.811 22.78C105.331 22.5 105.751 22.08 106.071 21.52C106.391 20.96 106.551 20.28 106.551 19.48C106.551 18.68 106.397 18.0067 106.091 17.46C105.784 16.9 105.377 16.48 104.871 16.2C104.364 15.92 103.817 15.78 103.231 15.78C102.644 15.78 102.097 15.92 101.591 16.2C101.097 16.48 100.704 16.9 100.411 17.46C100.117 18.0067 99.9706 18.68 99.9706 19.48C99.9706 20.6667 100.271 21.5867 100.871 22.24C101.484 22.88 102.251 23.2 103.171 23.2ZM113.425 10.2V25H111.145V10.2H113.425ZM121.198 25.18C120.158 25.18 119.218 24.9467 118.378 24.48C117.538 24 116.878 23.3333 116.398 22.48C115.918 21.6133 115.678 20.6133 115.678 19.48C115.678 18.36 115.925 17.3667 116.418 16.5C116.911 15.6333 117.585 14.9667 118.438 14.5C119.291 14.0333 120.245 13.8 121.298 13.8C122.351 13.8 123.305 14.0333 124.158 14.5C125.011 14.9667 125.685 15.6333 126.178 16.5C126.671 17.3667 126.918 18.36 126.918 19.48C126.918 20.6 126.665 21.5933 126.158 22.46C125.651 23.3267 124.958 24 124.078 24.48C123.211 24.9467 122.251 25.18 121.198 25.18ZM121.198 23.2C121.785 23.2 122.331 23.06 122.838 22.78C123.358 22.5 123.778 22.08 124.098 21.52C124.418 20.96 124.578 20.28 124.578 19.48C124.578 18.68 124.425 18.0067 124.118 17.46C123.811 16.9 123.405 16.48 122.898 16.2C122.391 15.92 121.845 15.78 121.258 15.78C120.671 15.78 120.125 15.92 119.618 16.2C119.125 16.48 118.731 16.9 118.438 17.46C118.145 18.0067 117.998 18.68 117.998 19.48C117.998 20.6667 118.298 21.5867 118.898 22.24C119.511 22.88 120.278 23.2 121.198 23.2ZM133.612 13.8C134.465 13.8 135.219 13.9733 135.872 14.32C136.539 14.6533 137.059 15.0733 137.432 15.58V13.98H139.732V25.18C139.732 26.1933 139.519 27.0933 139.092 27.88C138.665 28.68 138.045 29.3067 137.232 29.76C136.432 30.2133 135.472 30.44 134.352 30.44C132.859 30.44 131.619 30.0867 130.632 29.38C129.645 28.6867 129.085 27.74 128.952 26.54H131.212C131.385 27.1133 131.752 27.5733 132.312 27.92C132.885 28.28 133.565 28.46 134.352 28.46C135.272 28.46 136.012 28.18 136.572 27.62C137.145 27.06 137.432 26.2467 137.432 25.18V23.34C137.045 23.86 136.519 24.3 135.852 24.66C135.199 25.0067 134.452 25.18 133.612 25.18C132.652 25.18 131.772 24.94 130.972 24.46C130.185 23.9667 129.559 23.2867 129.092 22.42C128.639 21.54 128.412 20.5467 128.412 19.44C128.412 18.3333 128.639 17.3533 129.092 16.5C129.559 15.6467 130.185 14.9867 130.972 14.52C131.772 14.04 132.652 13.8 133.612 13.8ZM137.432 19.48C137.432 18.72 137.272 18.06 136.952 17.5C136.645 16.94 136.239 16.5133 135.732 16.22C135.225 15.9267 134.679 15.78 134.092 15.78C133.505 15.78 132.959 15.9267 132.452 16.22C131.945 16.5 131.532 16.92 131.212 17.48C130.905 18.0267 130.752 18.68 130.752 19.44C130.752 20.2 130.905 20.8667 131.212 21.44C131.532 22.0133 131.945 22.4533 132.452 22.76C132.972 23.0533 133.519 23.2 134.092 23.2C134.679 23.2 135.225 23.0533 135.732 22.76C136.239 22.4667 136.645 22.04 136.952 21.48C137.272 20.9067 137.432 20.24 137.432 19.48ZM143.887 12.52C143.473 12.52 143.127 12.38 142.847 12.1C142.567 11.82 142.427 11.4733 142.427 11.06C142.427 10.6467 142.567 10.3 142.847 10.02C143.127 9.74 143.473 9.6 143.887 9.6C144.287 9.6 144.627 9.74 144.907 10.02C145.187 10.3 145.327 10.6467 145.327 11.06C145.327 11.4733 145.187 11.82 144.907 12.1C144.627 12.38 144.287 12.52 143.887 12.52ZM145.007 13.98V25H142.727V13.98H145.007ZM147.24 19.44C147.24 18.3333 147.467 17.3533 147.92 16.5C148.387 15.6467 149.013 14.9867 149.8 14.52C150.6 14.04 151.48 13.8 152.44 13.8C153.307 13.8 154.06 13.9733 154.7 14.32C155.353 14.6533 155.873 15.0733 156.26 15.58V13.98H158.56V25H156.26V23.36C155.873 23.88 155.347 24.3133 154.68 24.66C154.013 25.0067 153.253 25.18 152.4 25.18C151.453 25.18 150.587 24.94 149.8 24.46C149.013 23.9667 148.387 23.2867 147.92 22.42C147.467 21.54 147.24 20.5467 147.24 19.44ZM156.26 19.48C156.26 18.72 156.1 18.06 155.78 17.5C155.473 16.94 155.067 16.5133 154.56 16.22C154.053 15.9267 153.507 15.78 152.92 15.78C152.333 15.78 151.787 15.9267 151.28 16.22C150.773 16.5 150.36 16.92 150.04 17.48C149.733 18.0267 149.58 18.68 149.58 19.44C149.58 20.2 149.733 20.8667 150.04 21.44C150.36 22.0133 150.773 22.4533 151.28 22.76C151.8 23.0533 152.347 23.2 152.92 23.2C153.507 23.2 154.053 23.0533 154.56 22.76C155.067 22.4667 155.473 22.04 155.78 21.48C156.1 20.9067 156.26 20.24 156.26 19.48Z" fill="white"/>
</svg>
