<svg width="54" height="54" viewBox="0 0 54 54" fill="none" xmlns="http://www.w3.org/2000/svg">
<rect width="54" height="54" rx="27" fill="#723DEC"/>
<path d="M27 15.3333H25.8333V38.6667H27C30.0942 38.6667 33.0617 37.4375 35.2496 35.2496C37.4375 33.0617 38.6667 30.0942 38.6667 27C38.6667 23.9058 37.4375 20.9383 35.2496 18.7504C33.0617 16.5625 30.0942 15.3333 27 15.3333V15.3333ZM28.1667 36.2633V17.7367C30.4274 18.0151 32.5082 19.1106 34.0171 20.8169C35.5261 22.5231 36.3591 24.7222 36.3591 27C36.3591 29.2778 35.5261 31.4769 34.0171 33.1831C32.5082 34.8894 30.4274 35.9849 28.1667 36.2633Z" fill="white"/>
</svg>
